<svg height="3182" width="720" xmlns="http://www.w3.org/2000/svg">
<rect height="3182" fill="#555" width="720"></rect>
<text fill="#7f7" font-family="Courier New" font-size="12" xml:space="preserve">
<tspan x="10" y="26"></tspan>
<tspan x="10" y="42">&gt; npmdoc-mongodb@0.0.5 test /home/travis/build/npmdoc/node-npmdoc-mongodb</tspan>
<tspan x="10" y="58">&gt; (set -e; export PORT=$(utility2 shServerPortRandom); utility2 test test.js)</tspan>
<tspan x="10" y="74"></tspan>
<tspan x="10" y="90"></tspan>
<tspan x="10" y="106">[MODE_BUILD=npmTest] - 2017-04-09T04:49:10Z - npm-testing /home/travis/build/npmdoc/node-npmdoc-\</tspan>
<tspan x="10" y="122">mongodb</tspan>
<tspan x="10" y="138"></tspan>
<tspan x="10" y="154"></tspan>
<tspan x="10" y="170">covering $ /home/travis/.nvm/versions/node/v6.10.2/bin/node /home/travis/build/npmdoc/node-npmdo\</tspan>
<tspan x="10" y="186">c-mongodb/test.js</tspan>
<tspan x="10" y="202">merging file:///home/travis/build/npmdoc/node-npmdoc-mongodb/tmp/build/test-report.json to test-\</tspan>
<tspan x="10" y="218">report</tspan>
<tspan x="10" y="234">&gt; server listening on http-port 41931</tspan>
<tspan x="10" y="250"></tspan>
<tspan x="10" y="266"></tspan>
<tspan x="10" y="282"></tspan>
<tspan x="10" y="298"></tspan>
<tspan x="10" y="314">options.exampleList</tspan>
<tspan x="10" y="330">2</tspan>
<tspan x="10" y="346"></tspan>
<tspan x="10" y="362"></tspan>
<tspan x="10" y="378"></tspan>
<tspan x="10" y="394"></tspan>
<tspan x="10" y="410"></tspan>
<tspan x="10" y="426"></tspan>
<tspan x="10" y="442"></tspan>
<tspan x="10" y="458"></tspan>
<tspan x="10" y="474">apidocModuleDictAdd</tspan>
<tspan x="10" y="490"></tspan>
<tspan x="10" y="506"></tspan>
<tspan x="10" y="522"></tspan>
<tspan x="10" y="538"></tspan>
<tspan x="10" y="554"></tspan>
<tspan x="10" y="570"></tspan>
<tspan x="10" y="586"></tspan>
<tspan x="10" y="602"></tspan>
<tspan x="10" y="618">moduleList</tspan>
<tspan x="10" y="634"></tspan>
<tspan x="10" y="650"></tspan>
<tspan x="10" y="666"></tspan>
<tspan x="10" y="682"></tspan>
<tspan x="10" y="698"></tspan>
<tspan x="10" y="714"></tspan>
<tspan x="10" y="730"></tspan>
<tspan x="10" y="746"></tspan>
<tspan x="10" y="762">render</tspan>
<tspan x="10" y="778"></tspan>
<tspan x="10" y="794"></tspan>
<tspan x="10" y="810"></tspan>
<tspan x="10" y="826"></tspan>
<tspan x="10" y="842">created apidoc file:///home/travis/build/npmdoc/node-npmdoc-mongodb/tmp/build/apidoc.html</tspan>
<tspan x="10" y="858"></tspan>
<tspan x="10" y="874"></tspan>
<tspan x="10" y="890">browserTest - created electron entry-page /home/travis/build/npmdoc/node-npmdoc-mongodb/tmp/elec\</tspan>
<tspan x="10" y="906">tron.15b510b60af0.a4bd9629d8441.html</tspan>
<tspan x="10" y="922"></tspan>
<tspan x="10" y="938"></tspan>
<tspan x="10" y="954"></tspan>
<tspan x="10" y="970"></tspan>
<tspan x="10" y="986"></tspan>
<tspan x="10" y="1002">options.exampleList</tspan>
<tspan x="10" y="1018">2</tspan>
<tspan x="10" y="1034"></tspan>
<tspan x="10" y="1050"></tspan>
<tspan x="10" y="1066"></tspan>
<tspan x="10" y="1082"></tspan>
<tspan x="10" y="1098"></tspan>
<tspan x="10" y="1114"></tspan>
<tspan x="10" y="1130"></tspan>
<tspan x="10" y="1146"></tspan>
<tspan x="10" y="1162">apidocModuleDictAdd</tspan>
<tspan x="10" y="1178"></tspan>
<tspan x="10" y="1194"></tspan>
<tspan x="10" y="1210"></tspan>
<tspan x="10" y="1226"></tspan>
<tspan x="10" y="1242">Xlib:  extension "RANDR" missing on display ":99.0".</tspan>
<tspan x="10" y="1258"></tspan>
<tspan x="10" y="1274"></tspan>
<tspan x="10" y="1290"></tspan>
<tspan x="10" y="1306"></tspan>
<tspan x="10" y="1322">moduleList</tspan>
<tspan x="10" y="1338"></tspan>
<tspan x="10" y="1354"></tspan>
<tspan x="10" y="1370"></tspan>
<tspan x="10" y="1386"></tspan>
<tspan x="10" y="1402"></tspan>
<tspan x="10" y="1418"></tspan>
<tspan x="10" y="1434"></tspan>
<tspan x="10" y="1450"></tspan>
<tspan x="10" y="1466">render</tspan>
<tspan x="10" y="1482"></tspan>
<tspan x="10" y="1498"></tspan>
<tspan x="10" y="1514"></tspan>
<tspan x="10" y="1530"></tspan>
<tspan x="10" y="1546">[node test-case 1 of 6 passed] - testCase_buildLib_default</tspan>
<tspan x="10" y="1562">[node test-case 2 of 6 passed] - testCase_buildReadme_default</tspan>
<tspan x="10" y="1578">[node test-case 3 of 6 passed] - testCase_buildTest_default</tspan>
<tspan x="10" y="1594"></tspan>
<tspan x="10" y="1610">browserTest - created electron entry-page /home/travis/build/npmdoc/node-npmdoc-mongodb/tmp/elec\</tspan>
<tspan x="10" y="1626">tron.15b510b61c00.c36f8113034fb.html</tspan>
<tspan x="10" y="1642"></tspan>
<tspan x="10" y="1658">Xlib:  extension "RANDR" missing on display ":99.0".</tspan>
<tspan x="10" y="1674">&gt; server listening on http-port 65514</tspan>
<tspan x="10" y="1690">merging file:///home/travis/build/npmdoc/node-npmdoc-mongodb/tmp/build/test-report.json to test-\</tspan>
<tspan x="10" y="1706">report</tspan>
<tspan x="10" y="1722">Xlib:  extension "RANDR" missing on display ":99.0".</tspan>
<tspan x="10" y="1738">[4755:0409/044912:WARNING:audio_manager.cc(314)] Multiple instances of AudioManager detected</tspan>
<tspan x="10" y="1754">[4755:0409/044912:WARNING:audio_manager.cc(275)] Multiple instances of AudioManager detected</tspan>
<tspan x="10" y="1770">[4799:0409/044912:ERROR:sandbox_linux.cc(343)] InitializeSandbox() called with multiple threads \</tspan>
<tspan x="10" y="1786">in process gpu-process. </tspan>
<tspan x="10" y="1802">[4755:0409/044912:ERROR:browser_gpu_channel_host_factory.cc(131)] Failed to create channel.</tspan>
<tspan x="10" y="1818">merging file:///home/travis/build/npmdoc/node-npmdoc-mongodb/tmp/build/test-report.json to test-\</tspan>
<tspan x="10" y="1834">report</tspan>
<tspan x="10" y="1850">Xlib:  extension "RANDR" missing on display ":99.0".</tspan>
<tspan x="10" y="1866">[4770:0409/044913:WARNING:audio_manager.cc(314)] Multiple instances of AudioManager detected</tspan>
<tspan x="10" y="1882">[4770:0409/044913:WARNING:audio_manager.cc(275)] Multiple instances of AudioManager detected</tspan>
<tspan x="10" y="1898">[4832:0409/044913:ERROR:sandbox_linux.cc(343)] InitializeSandbox() called with multiple threads \</tspan>
<tspan x="10" y="1914">in process gpu-process. </tspan>
<tspan x="10" y="1930"></tspan>
<tspan x="10" y="1946">browserTest - opened url /home/travis/build/npmdoc/node-npmdoc-mongodb/tmp/build/apidoc.html</tspan>
<tspan x="10" y="1962"></tspan>
<tspan x="10" y="1978"></tspan>
<tspan x="10" y="1994">browserTest - opened url http://127.0.0.1:41931?modeTest=1</tspan>
<tspan x="10" y="2010"></tspan>
<tspan x="10" y="2026">[4770:0409/044915:INFO:CONSOLE(248)] "----------|-----------|-----------|-----------|-----------\</tspan>
<tspan x="10" y="2042">|</tspan>
<tspan x="10" y="2058">File      |   % Stmts |% Branches |   % Funcs |   % Lines |</tspan>
<tspan x="10" y="2074">----------|-----------|-----------|-----------|-----------|</tspan>
<tspan x="10" y="2090">----------|-----------|-----------|-----------|-----------|</tspan>
<tspan x="10" y="2106">All files |       100 |       100 |       100 |       100 |</tspan>
<tspan x="10" y="2122">----------|-----------|-----------|-----------|-----------|</tspan>
<tspan x="10" y="2138">", source: file:///home/travis/build/npmdoc/node-npmdoc-mongodb/tmp/electron.15b510b61c00.c36f81\</tspan>
<tspan x="10" y="2154">13034fb.html (248)</tspan>
<tspan x="10" y="2170">[4770:0409/044915:INFO:CONSOLE(248)] "created coverage file:///tmp/build/coverage.html/index.htm\</tspan>
<tspan x="10" y="2186">l", source: file:///home/travis/build/npmdoc/node-npmdoc-mongodb/tmp/electron.15b510b61c00.c36f8\</tspan>
<tspan x="10" y="2202">113034fb.html (248)</tspan>
<tspan x="10" y="2218">[node test-case 4 of 6 passed] - testCase_buildApp_default</tspan>
<tspan x="10" y="2234"></tspan>
<tspan x="10" y="2250">browserTest - created screenCapture file:///home/travis/build/npmdoc/node-npmdoc-mongodb/tmp/bui\</tspan>
<tspan x="10" y="2266">ld/screenCapture.npmTest.browser.%2Fhome%2Ftravis%2Fbuild%2Fnpmdoc%2Fnode-npmdoc-mongodb%2Ftmp%2\</tspan>
<tspan x="10" y="2282">Fbuild%2Fapidoc.html.png</tspan>
<tspan x="10" y="2298"></tspan>
<tspan x="10" y="2314">browserTest - created screenCapture file:///home/travis/build/npmdoc/node-npmdoc-mongodb/tmp/bui\</tspan>
<tspan x="10" y="2330">ld/screenCapture.npmTest.browser.%2Fhome%2Ftravis%2Fbuild%2Fnpmdoc%2Fnode-npmdoc-mongodb%2Ftmp%2\</tspan>
<tspan x="10" y="2346">Fbuild%2Fapidoc.html.html</tspan>
<tspan x="10" y="2362"></tspan>
<tspan x="10" y="2378">browserTest - exit-code 0 - /home/travis/build/npmdoc/node-npmdoc-mongodb/tmp/build/apidoc.html</tspan>
<tspan x="10" y="2394"></tspan>
<tspan x="10" y="2410">[node test-case 5 of 6 passed] - testCase_buildApidoc_default</tspan>
<tspan x="10" y="2426"></tspan>
<tspan x="10" y="2442">browserTest - created screenCapture file:///home/travis/build/npmdoc/node-npmdoc-mongodb/tmp/bui\</tspan>
<tspan x="10" y="2458">ld/screenCapture.npmTest.browser.%2F.png</tspan>
<tspan x="10" y="2474"></tspan>
<tspan x="10" y="2490">browserTest - created screenCapture file:///home/travis/build/npmdoc/node-npmdoc-mongodb/tmp/bui\</tspan>
<tspan x="10" y="2506">ld/screenCapture.npmTest.browser.%2F.html</tspan>
<tspan x="10" y="2522"></tspan>
<tspan x="10" y="2538">browserTest - exit-code 0 - http://127.0.0.1:41931?modeTest=1</tspan>
<tspan x="10" y="2554"></tspan>
<tspan x="10" y="2570"></tspan>
<tspan x="10" y="2586">browserTest - merged coverage from /home/travis/build/npmdoc/node-npmdoc-mongodb/tmp/coverage.np\</tspan>
<tspan x="10" y="2602">mTest.browser.%2F.json</tspan>
<tspan x="10" y="2618"></tspan>
<tspan x="10" y="2634"></tspan>
<tspan x="10" y="2650">browserTest - merging test-report from /home/travis/build/npmdoc/node-npmdoc-mongodb/tmp/test-re\</tspan>
<tspan x="10" y="2666">port.npmTest.browser.%2F.json</tspan>
<tspan x="10" y="2682"></tspan>
<tspan x="10" y="2698">[node test-case 6 of 6 passed] - testCase_webpage_default</tspan>
<tspan x="10" y="2714">----------------------------|-----------|-----------|-----------|-----------|</tspan>
<tspan x="10" y="2730">File                        |   % Stmts |% Branches |   % Funcs |   % Lines |</tspan>
<tspan x="10" y="2746">----------------------------|-----------|-----------|-----------|-----------|</tspan>
<tspan x="10" y="2762">   node-npmdoc-mongodb/     |       100 |       100 |       100 |       100 |</tspan>
<tspan x="10" y="2778">      example.js            |       100 |       100 |       100 |       100 |</tspan>
<tspan x="10" y="2794">      lib.npmdoc_mongodb.js |       100 |       100 |       100 |       100 |</tspan>
<tspan x="10" y="2810">      test.js               |       100 |       100 |       100 |       100 |</tspan>
<tspan x="10" y="2826">----------------------------|-----------|-----------|-----------|-----------|</tspan>
<tspan x="10" y="2842">All files                   |       100 |       100 |       100 |       100 |</tspan>
<tspan x="10" y="2858">----------------------------|-----------|-----------|-----------|-----------|</tspan>
<tspan x="10" y="2874"></tspan>
<tspan x="10" y="2890">created coverage file:///home/travis/build/npmdoc/node-npmdoc-mongodb/tmp/build/coverage.html/in\</tspan>
<tspan x="10" y="2906">dex.html</tspan>
<tspan x="10" y="2922">merging file:///home/travis/build/npmdoc/node-npmdoc-mongodb/tmp/build/test-report.json to test-\</tspan>
<tspan x="10" y="2938">report</tspan>
<tspan x="10" y="2954"></tspan>
<tspan x="10" y="2970">-------------------------------------------------------</tspan>
<tspan x="10" y="2986">| test-report - npmTest - node - linux v6.10.2 - 2017-04-09T04:48:50.145Z</tspan>
<tspan x="10" y="3002">|   37032 ms            0 failed        6 passed      |</tspan>
<tspan x="10" y="3018">-------------------------------------------------------</tspan>
<tspan x="10" y="3034"></tspan>
<tspan x="10" y="3050">created test-report file:///home/travis/build/npmdoc/node-npmdoc-mongodb/tmp/build/test-report.h\</tspan>
<tspan x="10" y="3066">tml</tspan>
<tspan x="10" y="3082"></tspan>
<tspan x="10" y="3098"></tspan>
<tspan x="10" y="3114">npmTest - 0 failed tests</tspan>
<tspan x="10" y="3130"></tspan>
<tspan x="10" y="3146"></tspan>
<tspan x="10" y="3162">[MODE_BUILD=npmTest] - 2017-04-09T04:49:30Z - EXIT_CODE - 0</tspan>
</text>
</svg>
